<svg width="55" height="30" viewBox="0 0 55 30" fill="none" xmlns="http://www.w3.org/2000/svg">
<path fill-rule="evenodd" clip-rule="evenodd" d="M15 28.5C7.54415 28.5 1.5 22.4559 1.5 15C1.5 7.54415 7.54415 1.5 15 1.5C22.2884 1.5 28.2279 7.2758 28.4909 14.5H14.2552L18.542 10.0184L17.458 8.98155L12.75 13.9036V13.8964L11.3965 15.25L12.75 16.6035V16.5964L17.458 21.5184L18.542 20.4816L14.2552 16H28.4636C27.9518 22.9889 22.1195 28.5 15 28.5ZM15 0C23.117 0 29.7281 6.4472 29.9918 14.5H55V16H29.9672C29.4526 23.818 22.9482 30 15 30C6.71575 30 0 23.2843 0 15C0 6.71575 6.71575 0 15 0Z" fill="white"/>
</svg>
