<svg width="55" height="30" viewBox="0 0 55 30" fill="none" xmlns="http://www.w3.org/2000/svg">
<path fill-rule="evenodd" clip-rule="evenodd" d="M40 1.5C47.4559 1.5 53.5 7.54415 53.5 15C53.5 22.4559 47.4559 28.5 40 28.5C32.7116 28.5 26.7721 22.7242 26.5091 15.5H40.7448L36.458 19.9816L37.542 21.0184L42.25 16.0964V16.1036L43.6035 14.75L42.25 13.3965V13.4036L37.542 8.4816L36.458 9.51845L40.7448 14H26.5364C27.0482 7.01115 32.8805 1.5 40 1.5ZM40 30C31.883 30 25.2719 23.5528 25.0082 15.5H0V14H25.0328C25.5474 6.182 32.0518 0 40 0C48.2843 0 55 6.71575 55 15C55 23.2843 48.2843 30 40 30Z" fill="white"/>
</svg>
