<svg viewBox="0 0 624 146" fill="none" xmlns="http://www.w3.org/2000/svg">
<path fill-rule="evenodd" clip-rule="evenodd" d="M97.9916 70.427V0H20.2949C14.9124 0 9.75027 2.10774 5.94424 5.85953C2.13821 9.61132 0 14.6998 0 20.0057V90.4327H77.719C83.0977 90.4269 88.254 88.3166 92.0552 84.5654C95.8564 80.8143 97.9916 75.7291 97.9916 70.427ZM5.62631 84.7766V20.0937C5.63223 16.2626 7.18027 12.5904 9.93053 9.88349C12.6808 7.17656 16.4084 5.65617 20.2949 5.65617H83.0327L27.685 62.8781V19.4775H21.7461V68.8865L6.36309 84.7766H5.62631ZM48.94 49.6511L69.86 71.0873H78.5674L53.2267 45.2274L91.5168 5.61215H92.3652V70.427C92.3593 74.2543 90.8144 77.9232 88.0689 80.6295C85.3235 83.3358 81.6016 84.8588 77.719 84.8646H14.8472L48.94 49.6511ZM185.918 17H178.324L154.781 41.4168V17H149V68.9866H154.781V43.2255L179.965 68.9866H188.27L161.518 41.7346L185.918 17ZM202.695 17.4266H218.594C229.936 17.4266 236.281 24.2213 236.355 32.7024C236.355 42.1612 230.72 49.0292 217.81 49.0292H208.574V69.4132H202.695V17.4266ZM208.574 43.6521H216.854C226.335 43.6521 230.108 39.766 230.108 33.289C230.108 26.8121 226.335 22.7548 217.344 22.7548H208.574V43.6521ZM303.772 17.4266H297.991V69.4132H303.772V17.4266ZM270.265 37.884C282.783 37.884 287.952 44.8986 287.952 52.7932C287.952 60.9077 284.424 69.4132 269.946 69.4132H254.537V17.4266H260.319V37.884H270.265ZM260.343 43.2611V64.0361H269.628C278.398 64.0361 281.681 59.7345 281.681 53.6486C281.681 47.0006 277.149 43.2611 269.799 43.2611H260.343ZM370.751 32.4824L380.697 69.4131H386.723L372.172 16.3268L354.631 55.2128L337.826 16.3268L322.319 69.4131H327.953L338.512 32.4824L354.337 68.9487L370.751 32.4824ZM402.843 43.3343C402.843 56.2882 411.687 65.1849 424.671 65.1849C429.709 65.2272 434.625 63.6409 438.684 60.6632L441.819 64.5738C437.747 67.7922 432.855 69.8124 427.695 70.4071C422.534 71.0017 417.309 70.1472 412.609 67.9396C407.909 65.7321 403.919 62.2593 401.09 57.9121C398.261 53.565 396.705 48.5163 396.596 43.3343C396.596 28.1074 408.404 16.2534 424.597 16.2534C430.525 15.9943 436.352 17.8484 441.035 21.4838L437.753 25.6144C433.887 22.8452 429.205 21.4431 424.45 21.6305C421.569 21.5155 418.696 21.9994 416.013 23.0514C413.329 24.1034 410.894 25.7006 408.862 27.7414C406.831 29.7823 405.246 32.2224 404.21 34.9067C403.174 37.591 402.708 40.461 402.843 43.3343ZM495.443 17.4266H487.849L464.282 41.8435V17.4266H458.501V69.4132H464.282V43.6521L489.49 69.4132H497.795L471.019 42.1612L495.443 17.4266ZM513.893 17.4267H519.699V56.3862L557.082 16.2535V69.4134H551.301V30.1362L513.893 70.5132V17.4267ZM584.618 56.3862V17.4267H578.812V70.5132L616.22 30.1362V69.4134H622.002V16.2535L584.618 56.3862ZM614.577 4.88831C613.915 10.4365 609.187 14.176 601.666 14.176C593.68 14.176 589.221 10.5342 588.854 4.88831H594.635C595.027 7.5524 597.281 8.7989 601.666 8.7989C606.052 8.7989 608.305 7.06358 609.016 4.88831H614.577ZM166.488 114.312H155.219V98.3028H177.977V92.9012H149.437V144.961H166.022C178.271 144.961 183.783 138.484 183.783 129.197C183.783 120.52 177.855 114.312 166.488 114.312ZM165.018 139.511H155.219V119.689H165.238C174.547 119.689 177.487 123.819 177.487 129.612C177.61 136.48 173.224 139.511 165.018 139.511ZM199.854 92.9012H215.728C227.071 92.9012 233.416 99.6959 233.416 108.201C233.416 117.66 227.781 124.528 214.871 124.528H205.635V144.961H199.854V92.9012ZM205.635 119.127H214.013V119.151C223.47 119.151 227.169 115.314 227.169 108.837C227.169 102.36 223.396 98.3028 214.405 98.3028H205.635V119.127ZM255.856 92.9011H250.074V145.987L287.458 105.635V144.912H293.264V91.7523L255.856 131.86V92.9011ZM313.645 134.745C317.943 138.547 323.481 140.658 329.226 140.684C337.114 140.684 341.964 136.382 341.915 130.125C341.915 124.577 338.412 120.202 328.613 120.202H322.538V114.825H328.099C335.473 114.825 339.221 111.916 339.221 105.293C339.221 101.456 336.624 97.0073 328.417 97.0073C323.553 97.1319 318.85 98.7729 314.968 101.7L311.759 98.1805C316.406 94.0165 322.416 91.6874 328.662 91.6302C339.147 91.6302 345.492 97.0318 345.492 104.829C345.468 107.496 344.6 110.088 343.012 112.235C341.424 114.381 339.197 115.972 336.648 116.78V117.025C344.39 118.736 348.236 124.21 348.236 130.37C348.236 138.655 341.303 145.988 329.054 145.988C325.555 146.095 322.07 145.502 318.805 144.242C315.539 142.983 312.56 141.083 310.044 138.655L313.645 134.745ZM404.876 90.7612H404.729V90.9079V96.5782H396.792V90.9079V90.7612H396.67H394.563H394.416V90.9079V105.646V105.768H394.563H396.67H396.792V105.646V98.7046H404.729V105.646V105.768H404.876H406.983H407.106V105.646V90.9079V90.7612H406.983H404.876ZM417.027 90.9166C418.021 90.5477 419.079 90.3868 420.138 90.444C421.752 90.4498 423.327 90.9359 424.663 91.8403C425.998 92.7446 427.033 94.026 427.634 95.5204C428.235 97.0148 428.376 98.6542 428.037 100.229C427.699 101.803 426.898 103.241 425.736 104.359C424.574 105.476 423.104 106.222 421.514 106.502C419.925 106.781 418.288 106.58 416.813 105.926C415.338 105.271 414.093 104.193 413.236 102.828C412.38 101.463 411.951 99.8746 412.004 98.2652C411.986 97.208 412.186 96.1583 412.592 95.1817C412.998 94.205 413.602 93.3223 414.365 92.5885C415.128 91.8547 416.034 91.2856 417.027 90.9166ZM416.925 102.997C417.883 103.606 419.002 103.916 420.138 103.887C420.883 103.904 421.624 103.769 422.315 103.488C423.006 103.208 423.631 102.789 424.153 102.257C424.674 101.725 425.081 101.092 425.347 100.397C425.613 99.7018 425.732 98.9596 425.699 98.2163C425.703 97.0828 425.368 95.9737 424.737 95.0311C424.106 94.0884 423.208 93.3551 422.157 92.9249C421.105 92.4948 419.95 92.3874 418.837 92.6165C417.724 92.8456 416.705 93.4008 415.911 94.211C415.116 95.0212 414.582 96.0496 414.377 97.1645C414.171 98.2793 414.304 99.43 414.758 100.469C415.212 101.508 415.966 102.389 416.925 102.997ZM433.636 90.7612H433.489V90.9079V92.741V92.8876H433.636H437.213V105.646V105.768H437.36H439.466H439.613V105.646V92.8876H443.19H443.337V92.741V90.9079V90.7612H443.19H433.636ZM452.623 99.1446V103.666H459.433H459.58V103.813V105.646V105.768H459.433H450.369H450.222V105.646V90.9079V90.7612H450.369H459.384H459.507V90.9079V92.741V92.8876H459.384H452.623V97.0182H458.747H458.894V97.1648V98.9979V99.1446H458.747H452.623ZM470.186 103.666V90.9079V90.7612H470.039H467.932H467.785V90.9079V105.646V105.768H467.932H476.997H477.144V105.646V103.813V103.666H476.997H470.186ZM408.502 136.725C408.001 138.266 407.37 139.762 406.616 141.197L408.625 144.546L408.772 144.766H406.199L405.121 143.177C404.608 143.795 403.964 144.293 403.236 144.635C402.507 144.977 401.713 145.155 400.908 145.157C400.215 145.19 399.523 145.082 398.875 144.838C398.226 144.594 397.634 144.22 397.136 143.739C396.638 143.258 396.243 142.68 395.978 142.041C395.712 141.402 395.581 140.716 395.592 140.024C395.696 138.873 396.158 137.783 396.914 136.907C397.669 136.03 398.68 135.411 399.805 135.136L399.683 134.916C399.092 134.12 398.751 133.168 398.703 132.179C398.729 131.796 398.835 131.423 399.012 131.083C399.19 130.743 399.435 130.443 399.734 130.202C400.033 129.962 400.379 129.785 400.749 129.683C401.12 129.582 401.507 129.558 401.888 129.612C402.974 129.622 404.045 129.873 405.023 130.345H405.146V130.468L404.362 132.154V132.276H404.24C403.563 131.931 402.819 131.739 402.059 131.714C401.959 131.701 401.857 131.708 401.759 131.735C401.662 131.763 401.571 131.81 401.493 131.875C401.415 131.939 401.351 132.019 401.305 132.109C401.259 132.199 401.232 132.298 401.226 132.399C401.303 132.955 401.532 133.479 401.888 133.914L405.244 139.022C405.783 137.825 406.175 136.896 406.42 136.138V136.016H406.542L408.38 136.602H408.502V136.725ZM399.959 142.804C400.314 142.954 400.695 143.031 401.079 143.031C401.663 142.986 402.226 142.8 402.721 142.489C403.217 142.178 403.628 141.752 403.921 141.246L400.908 136.676C400.164 136.899 399.508 137.345 399.026 137.952C398.544 138.56 398.26 139.3 398.213 140.073C398.2 140.457 398.264 140.839 398.402 141.198C398.541 141.556 398.75 141.883 399.017 142.159C399.285 142.435 399.605 142.654 399.959 142.804ZM441.525 129.807H441.452L441.403 129.905L436.822 140.146L432.192 129.905L432.167 129.807H432.069H429.791H429.57L429.644 130.027L436.699 145.059L436.846 145.328L436.969 145.059L443.951 130.003L444.048 129.807H443.828H441.525ZM450.073 129.807H450.22H452.327H452.474V129.954V144.692V144.839H452.327H450.22H450.073V144.692V129.954V129.807ZM464.235 142.712V129.954V129.807H464.088H461.981H461.858V129.954V144.692V144.839H461.981H471.07H471.217V144.692V142.859V142.712H471.07H464.235ZM481.162 129.954V142.712H487.997H488.119V142.859V144.692V144.839H487.997H478.908H478.761V144.692V129.954V129.807H478.908H481.015H481.162V129.954ZM501.937 129.588L501.815 129.319L501.692 129.588L494.343 144.644V144.839H496.94L498.801 140.953H504.754L506.616 144.839H509.213V144.644L501.937 129.588ZM499.683 138.753L501.79 134.378L503.921 138.753H499.683ZM519.365 136.264C519.797 136.543 520.206 136.808 520.556 137.091C521.242 137.531 521.812 138.129 522.217 138.836C522.622 139.542 522.851 140.335 522.883 141.149C522.844 141.742 522.684 142.321 522.413 142.85C522.143 143.38 521.767 143.849 521.308 144.229C520.849 144.608 520.318 144.891 519.747 145.059C519.175 145.227 518.575 145.277 517.984 145.206C516.409 145.224 514.865 144.773 513.549 143.91L514.407 142.273V142.126H514.529C515.575 142.758 516.762 143.119 517.984 143.177C518.278 143.248 518.585 143.251 518.88 143.185C519.176 143.12 519.452 142.987 519.689 142.799C519.925 142.61 520.115 142.37 520.244 142.096C520.373 141.823 520.438 141.524 520.433 141.222C520.23 140.52 519.871 139.872 519.384 139.326C518.896 138.781 518.292 138.351 517.616 138.069L516.881 137.556L516.514 137.311C515.813 136.963 515.217 136.436 514.787 135.783C514.357 135.131 514.107 134.376 514.064 133.596C514.095 133.035 514.238 132.486 514.485 131.981C514.733 131.476 515.079 131.025 515.504 130.656C515.929 130.287 516.423 130.007 516.959 129.831C517.494 129.656 518.059 129.59 518.62 129.637C519.847 129.619 521.054 129.949 522.099 130.59L521.34 132.179V132.301H521.217C520.418 131.893 519.541 131.66 518.645 131.617C518.39 131.586 518.131 131.609 517.886 131.684C517.64 131.759 517.413 131.885 517.219 132.053C517.025 132.221 516.869 132.428 516.76 132.66C516.651 132.892 516.592 133.144 516.587 133.401C516.794 134.025 517.136 134.596 517.589 135.073C518.042 135.551 518.595 135.923 519.208 136.163C519.261 136.197 519.313 136.23 519.365 136.264Z" fill="currentColor"/>
</svg>
